# xmcd
#
# Track frame offsets: 
#        150
#        20665
#        33455
#        45002
#        58217
#        70742
#        84910
#        97672
#        110817
#        125505
#
# Disc length: 1839 seconds
#
# Revision: 2
# Processed by: cddbd v1.4PL0 Copyright (c) Steve Scherf et al.
# Submitted via: ExactAudioCopy v0.90b3
#
DISCID=79072d0a
DTITLE=Merle Haggard - Greatest Hits
DYEAR=1900
DGENRE=Country
TTITLE0=I Think I'll Just Stay Here And Drink
TTITLE1=I'm Always On A Mountain When I Fall
TTITLE2=Red Bandana
TTITLE3=The Way I Am
TTITLE4=It's Been A Great Afternoon
TTITLE5=Ramblin' Fever
TTITLE6=Misery And Gin
TTITLE7=My Own Kind Of Hat
TTITLE8=If We're Not Back In Love By Monday
TTITLE9=Rainbow Stew
EXTD=
EXTT0=
EXTT1=
EXTT2=
EXTT3=
EXTT4=
EXTT5=
EXTT6=
EXTT7=
EXTT8=
EXTT9=
PLAYORDER=
